# xmcd
#
# Track frame offsets: 
#        150
#        12920
#        26732
#        39799
#        52288
#        66676
#        77944
#        92192
#        108918
#        121450
#        135864
#        148588
#        159785
#        172579
#        184586
#        198236
#        210274
#        223166
#        237306
#        249711
#
# Disc length: 3493 seconds
#
# Revision: 0
# Processed by: cddbd v1.5.2PL0 Copyright (c) Steve Scherf et al.
# Submitted via: ExactAudioCopy v1.0b1
#
DISCID=130da314
DTITLE=Various Artist - The Motown Box
DYEAR=2005
DGENRE=R&B
TTITLE0=The Miracles - Shop Around (version 3 - national) (2005 stereo
TTITLE0=mix)
TTITLE1=The Marvelettes - Please Mr. Postman (2005 stereo mix)
TTITLE2=The Contours - Do You Love Me (2005 stereo mix)
TTITLE3=Mary Wells - Two Lovers (stereo)
TTITLE4=The Miracles - You've Really Got A Hold On Me (stereo)
TTITLE5=Marvin Gaye - Hitch Hike (stereo)
TTITLE6=Stevie Wonder - Fingertips Pt. 2 (stereo)
TTITLE7=Martha and The Vandellas - (Love Is Like A) Heat Wave (2005 ster
TTITLE7=eo mix)
TTITLE8=Martha and The Vandellas - Quicksand (2005 stereo mix)
TTITLE9=The Miracles - Mickey's Monkey (stereo)
TTITLE10=Marvin Gaye - Can I Get A Witness (stereo)
TTITLE11=The Marvelettes - Too Many Fish In The Sea (stereo)
TTITLE12=The Four Tops - Baby I Need Your Loving (2005 stereo mix)
TTITLE13=The Temptations - The Way You Do The Things You Do (stereo)
TTITLE14=The Supremes - When The Lovelight Starts Shining Through His 
TTITLE14=Eyes (stereo)
TTITLE15=The Supremes - Where Did Our Love Go (stereo)
TTITLE16=The Temptations - Don't Look Back (stereo)
TTITLE17=The Elgins - Heaven Must Have Sent You (stereo)
TTITLE18=Marvin Gaye - You're A Wonderful One (stereo)
TTITLE19=The Supremes - Come See About Me (stereo)
EXTD=
EXTT0=
EXTT1=
EXTT2=
EXTT3=
EXTT4=
EXTT5=
EXTT6=
EXTT7=
EXTT8=
EXTT9=
EXTT10=
EXTT11=
EXTT12=
EXTT13=
EXTT14=
EXTT15=
EXTT16=
EXTT17=
EXTT18=
EXTT19=
PLAYORDER=
